<svg xmlns="http://www.w3.org/2000/svg" xmlns:xlink="http://www.w3.org/1999/xlink">
    <defs>
    <symbol viewBox="0 0 24 24" id="ic-outline-arrow-forward"><!-- Icon from Google Material Icons by Material Design Authors - https://github.com/material-icons/material-icons/blob/master/LICENSE --><path fill="currentColor" d="m12 4l-1.41 1.41L16.17 11H4v2h12.17l-5.58 5.59L12 20l8-8z"></path></symbol>
    <symbol viewBox="0 0 24 24" id="material-symbols-tools-wrench-outline-rounded"><!-- Icon from Material Symbols by Google - https://github.com/google/material-design-icons/blob/master/LICENSE --><path fill="currentColor" d="m19.275 19.8l.7-.7L12 11.125q.475-.575.738-1.3T13 8.3q0-1.875-1.313-3.175T8.5 3.825h-.25L11.325 6.9l-4.25 4.225L4 8.05v.275Q4 10.2 5.312 11.5T8.5 12.8q.8 0 1.513-.263T11.3 11.8l7.975 8ZM5.375 3.25q0-.725.775-1.088T8.5 1.8q2.725 0 4.612 1.888T15 8.3q0 .65-.125 1.288T14.5 10.8l6.875 6.875q.575.575.588 1.413T21.4 20.5l-.675.7q-.575.6-1.413.613t-1.437-.588l-6.9-6.9q-.575.25-1.2.363t-1.25.112q-2.725 0-4.612-1.887T2.025 8.3q0-1.6.35-2.363t1.075-.762q.25 0 .463.088t.387.262L7.075 8.3L8.5 6.9L5.725 4.125q-.175-.175-.263-.4t-.087-.475ZM9.2 9Z"></path></symbol>
    <symbol viewBox="0 0 512 512" id="cil-education"><!-- Icon from CoreUI Free by creativeLabs Åukasz Holeczek - https://creativecommons.org/licenses/by/4.0/ --><path fill="currentColor" d="m368 350.643l-112 63l-112-63v-66.562l-32-17.778v103.054l144 81l144-81V266.303l-32 17.778z"></path><path fill="currentColor" d="M256 45.977L32 162.125v27.734L256 314.3l192-106.663V296h32V162.125Zm160 142.831l-32 17.777L256 277.7l-128-71.115l-32-17.777l-22.179-12.322L256 82.023l182.179 94.463Z"></path></symbol>
    <symbol viewBox="0 0 24 24" id="majesticons-suitcase-line"><!-- Icon from Majesticons by Gerrit Halfmann - https://github.com/halfmage/majesticons/blob/main/LICENSE --><path fill="none" stroke="currentColor" stroke-linecap="round" stroke-linejoin="round" stroke-width="2" d="M15 8V6a2 2 0 0 0-2-2h-2a2 2 0 0 0-2 2v2m6 0h4a2 2 0 0 1 2 2v8a2 2 0 0 1-2 2H5a2 2 0 0 1-2-2v-8a2 2 0 0 1 2-2h4m6 0H9"></path></symbol>
    <symbol viewBox="0 0 24 24" id="material-symbols-bookmarks-outline"><!-- Icon from Material Symbols by Google - https://github.com/google/material-design-icons/blob/master/LICENSE --><path fill="currentColor" d="M4 22V8q0-.825.588-1.412T6 6h8q.825 0 1.413.588T16 8v14l-6-3zm2-3.025l4-2.15l4 2.15V8H6zM18 18V4H7V2h11q.825 0 1.413.588T20 4v14zM6 8h8z"></path></symbol>
    <symbol viewBox="0 0 24 24" id="uis-graph-bar"><!-- Icon from Unicons Solid by Iconscout - https://github.com/Iconscout/unicons/blob/master/LICENSE --><path fill="currentColor" d="M6 13H2c-.6 0-1 .4-1 1v8c0 .6.4 1 1 1h4c.6 0 1-.4 1-1v-8c0-.6-.4-1-1-1m16-4h-4c-.6 0-1 .4-1 1v12c0 .6.4 1 1 1h4c.6 0 1-.4 1-1V10c0-.6-.4-1-1-1m-8-8h-4c-.6 0-1 .4-1 1v20c0 .6.4 1 1 1h4c.6 0 1-.4 1-1V2c0-.6-.4-1-1-1"></path></symbol>
<symbol viewBox="0 0 24 24" id="material-symbols-chevron-left-rounded"><!-- Icon from Material Symbols by Google - https://github.com/google/material-design-icons/blob/master/LICENSE --><path fill="currentColor" d="m10.8 12l3.9 3.9q.275.275.275.7t-.275.7t-.7.275t-.7-.275l-4.6-4.6q-.15-.15-.212-.325T8.425 12t.063-.375t.212-.325l4.6-4.6q.275-.275.7-.275t.7.275t.275.7t-.275.7z"></path></symbol>
<symbol viewBox="0 0 24 24" id="material-symbols-chevron-right-rounded"><!-- Icon from Material Symbols by Google - https://github.com/google/material-design-icons/blob/master/LICENSE --><path fill="currentColor" d="M12.6 12L8.7 8.1q-.275-.275-.275-.7t.275-.7t.7-.275t.7.275l4.6 4.6q.15.15.213.325t.062.375t-.062.375t-.213.325l-4.6 4.6q-.275.275-.7.275t-.7-.275t-.275-.7t.275-.7z"></path></symbol>
    <symbol viewBox="0 0 256 256" id="bitcoin-logo"><!-- Icon from SVG Logos by Gil Barbara - https://raw.githubusercontent.com/gilbarbara/logos/master/LICENSE.txt --><defs><linearGradient id="logosBitcoin0" x1="49.973%" x2="49.973%" y1="-.024%" y2="99.99%"><stop offset="0%" stop-color="#F9AA4B"></stop><stop offset="100%" stop-color="#F7931A"></stop></linearGradient></defs><path fill="url(#logosBitcoin0)" d="M252.171 158.954c-17.102 68.608-86.613 110.314-155.123 93.211c-68.61-17.102-110.316-86.61-93.213-155.119C20.937 28.438 90.347-13.268 158.957 3.835c68.51 17.002 110.317 86.51 93.214 155.119"></path><path fill="#FFF" d="M188.945 112.05c2.5-17-10.4-26.2-28.2-32.3l5.8-23.1l-14-3.5l-5.6 22.5c-3.7-.9-7.5-1.8-11.3-2.6l5.6-22.6l-14-3.5l-5.7 23q-4.65-1.05-9-2.1v-.1l-19.4-4.8l-3.7 15s10.4 2.4 10.2 2.5c5.7 1.4 6.7 5.2 6.5 8.2l-6.6 26.3c.4.1.9.2 1.5.5c-.5-.1-1-.2-1.5-.4l-9.2 36.8c-.7 1.7-2.5 4.3-6.4 3.3c.1.2-10.2-2.5-10.2-2.5l-7 16.1l18.3 4.6c3.4.9 6.7 1.7 10 2.6l-5.8 23.3l14 3.5l5.8-23.1c3.8 1 7.6 2 11.2 2.9l-5.7 23l14 3.5l5.8-23.3c24 4.5 42 2.7 49.5-19c6.1-17.4-.3-27.5-12.9-34.1c9.3-2.1 16.2-8.2 18-20.6m-32.1 45c-4.3 17.4-33.7 8-43.2 5.6l7.7-30.9c9.5 2.4 40.1 7.1 35.5 25.3m4.4-45.3c-4 15.9-28.4 7.8-36.3 5.8l7-28c7.9 2 33.4 5.7 29.3 22.2"></path></symbol>
        <symbol id="pyth-logo" xmlns="http://www.w3.org/2000/svg" fill="currentColor" viewBox="0 0 370.99 127.93"><path d="M127.92 47.62V16.45h14.43c2.05 0 3.83.39 5.34 1.18s2.7 1.88 3.56 3.27c.86 1.4 1.29 3.02 1.29 4.85s-.43 3.46-1.29 4.85c-.86 1.4-2.06 2.49-3.58 3.27-1.53.79-3.3 1.18-5.32 1.18h-9.75v12.56h-4.68Zm4.68-16.52h9.26c1.84 0 3.3-.48 4.39-1.45s1.63-2.25 1.63-3.85-.54-2.88-1.63-3.83c-1.08-.95-2.55-1.42-4.39-1.42h-9.26zM166 48.07c-2.2 0-4.19-.52-5.99-1.56s-3.21-2.45-4.25-4.23q-1.56-2.67-1.56-5.97c0-3.3.52-4.19 1.56-5.97s2.46-3.2 4.25-4.25c1.8-1.05 3.79-1.58 5.99-1.58s4.23.53 6.01 1.58c1.78 1.06 3.19 2.47 4.23 4.25q1.56 2.67 1.56 5.97c0 3.3-.52 4.19-1.56 5.97s-2.45 3.19-4.23 4.23-3.78 1.56-6.01 1.56m0-3.92c1.4 0 2.66-.35 3.79-1.05a7.5 7.5 0 0 0 2.67-2.83c.65-1.19.98-2.52.98-4.01s-.33-2.77-1-3.94a8.06 8.06 0 0 0-2.67-2.83c-1.11-.71-2.37-1.07-3.76-1.07s-2.65.36-3.76 1.07-2 1.65-2.67 2.83c-.67 1.17-1 2.49-1 3.94s.33 2.82.98 4.01 1.54 2.13 2.67 2.83 2.39 1.05 3.79 1.05Zm20.71 3.47-6.32-22.67h4.32l4.41 16.66 5.17-16.66h3.83l5.17 16.66 4.41-16.66h4.19l-6.37 22.67h-4.27l-5.08-16.61-5.12 16.61h-4.32Zm39.63.4c-2.23 0-4.24-.52-6.04-1.56s-3.22-2.45-4.27-4.23-1.58-3.77-1.58-5.97.5-4.13 1.51-5.9 2.38-3.18 4.1-4.23 3.64-1.58 5.74-1.58 3.98.53 5.61 1.58c1.63 1.06 2.93 2.48 3.9 4.28.96 1.8 1.45 3.82 1.45 6.08v1.25H218.9c.24 1.25.71 2.36 1.4 3.34.7.98 1.59 1.75 2.67 2.32 1.08.56 2.26.85 3.54.85q1.65 0 3.18-.51c1.02-.34 1.88-.84 2.56-1.49l2.85 2.81c-1.34 1.01-2.71 1.76-4.12 2.25s-2.96.74-4.65.74Zm-7.39-13.63h13.4c-.18-1.19-.59-2.23-1.23-3.14a7 7 0 0 0-2.36-2.14c-.94-.52-1.95-.78-3.05-.78s-2.17.25-3.12.76-1.74 1.21-2.38 2.12-1.06 1.97-1.27 3.18Zm22.94 13.23V24.95h4.45v2.9c.71-1.07 1.6-1.91 2.65-2.52s2.25-.91 3.59-.91c.92.03 1.68.16 2.27.4v4.01c-.42-.18-.85-.3-1.29-.38a8.7 8.7 0 0 0-1.34-.11q-1.965 0-3.48 1.05c-1.515 1.05-1.81 1.71-2.4 3.05v15.19h-4.45Zm26.98.4c-2.23 0-4.24-.52-6.04-1.56a11.7 11.7 0 0 1-4.27-4.23c-1.06-1.78-1.58-3.77-1.58-5.97s.51-4.13 1.51-5.9c1.01-1.77 2.38-3.18 4.1-4.23s3.64-1.58 5.75-1.58 3.98.53 5.61 1.58c1.63 1.06 2.93 2.48 3.9 4.28s1.45 3.82 1.45 6.08v1.25h-17.86c.24 1.25.71 2.36 1.4 3.34.7.98 1.59 1.75 2.67 2.32 1.08.56 2.26.85 3.54.85q1.65 0 3.18-.51c1.02-.34 1.88-.84 2.56-1.49l2.85 2.81c-1.34 1.01-2.71 1.76-4.12 2.25s-2.96.74-4.65.74Zm-7.39-13.63h13.4c-.18-1.19-.59-2.23-1.22-3.14a7.1 7.1 0 0 0-2.36-2.14c-.94-.52-1.95-.78-3.05-.78s-2.17.25-3.12.76-1.74 1.21-2.38 2.12-1.06 1.97-1.27 3.18m33.4 13.59q-3.165 0-5.79-1.56a11.4 11.4 0 0 1-4.14-4.21c-1.01-1.77-1.51-3.75-1.51-5.95s.51-4.17 1.54-5.92c1.02-1.75 2.41-3.15 4.16-4.19s3.7-1.56 5.83-1.56a11.23 11.23 0 0 1 6.82 2.27V16.44l4.45-.85v32.02h-4.41v-2.18c-1.93 1.69-4.25 2.54-6.95 2.54Zm.58-3.87c1.3 0 2.5-.24 3.58-.71s2-1.16 2.74-2.05v-10.2c-.74-.83-1.65-1.49-2.74-1.98s-2.28-.73-3.58-.73c-1.43 0-2.72.34-3.88 1.02a7.6 7.6 0 0 0-2.76 2.78q-1.02 1.755-1.02 3.99c0 2.235.34 2.82 1.02 4.01s1.6 2.13 2.76 2.83 2.45 1.05 3.88 1.05Zm27.12 3.51V16.45l4.45-.85v11.49q2.85-2.49 6.9-2.49c2.14 0 4.08.52 5.81 1.56 1.74 1.04 3.11 2.43 4.12 4.19 1.01 1.75 1.51 3.73 1.51 5.92s-.51 4.18-1.54 5.95c-1.02 1.77-2.4 3.17-4.14 4.21s-3.69 1.56-5.86 1.56q-1.875 0-3.63-.6c-1.17-.4-2.25-.97-3.23-1.72v1.96h-4.41Zm10.78-3.52q2.175 0 3.9-1.02c1.14-.68 2.05-1.61 2.74-2.78q1.02-1.755 1.02-3.99c0-2.235-.34-2.82-1.02-4.01a7.7 7.7 0 0 0-2.74-2.81q-1.71-1.02-3.9-1.02c-1.28 0-2.47.24-3.56.71-1.1.47-2.02 1.14-2.76 2v10.24c.74.83 1.67 1.48 2.78 1.96s2.29.71 3.54.71Zm17.99 13.1c-.47 0-.92-.02-1.34-.07s-.76-.11-1.02-.2v-3.92c.53.12 1.19.18 1.96.18 2.08 0 3.58-1.11 4.5-3.34l.98-2.18-9.08-22.71h4.94l6.59 17.28 7.3-17.28h4.81l-10.95 25.47c-.71 1.6-1.47 2.9-2.27 3.9-.8.99-1.72 1.72-2.76 2.18s-2.26.69-3.65.69ZM143.02 97.41v-8.49h20.13c3.08 0 5.48-.87 7.2-2.62s2.59-4.05 2.59-6.9-.86-5.2-2.59-6.9-4.13-2.55-7.2-2.55h-26.54v42.39h-8.69V61.17h35.23c2.9 0 5.48.43 7.76 1.28 2.27.85 4.19 2.05 5.76 3.59 1.56 1.54 2.76 3.42 3.59 5.62.83 2.21 1.24 4.69 1.24 7.46s-.42 5.19-1.24 7.42c-.83 2.23-2.03 4.15-3.59 5.77-1.56 1.61-3.48 2.86-5.76 3.76-2.27.9-4.86 1.35-7.76 1.35h-20.13Zm66.99 14.92V92.3L183.4 61.16h11.79l19.51 23.13 19.58-23.13h11.17L218.76 92.3v20.03zm65.63 0v-42.4h-23.06v-8.77h54.9v8.77h-23.09v42.4zm86.63-51.17h8.72v51.17h-8.72zm-37.64 51.17v-22.7h32.45v-7.77h-32.45v-20.7h-8.72v51.17zM51.17 0c-9.32 0-18.06 2.49-25.59 6.85a51 51 0 0 0-12.79 10.48C4.83 26.35 0 38.2 0 51.17v38.38l12.79 12.79V51.17c0-11.36 4.94-21.58 12.79-28.61 3.69-3.3 8.03-5.9 12.79-7.58 4-1.42 8.31-2.19 12.79-2.19 21.19 0 38.38 17.18 38.38 38.38S72.36 89.55 51.16 89.55v12.79c28.26 0 51.17-22.91 51.17-51.17S79.44 0 51.17 0"/><path d="M63.96 51.17c0 7.06-5.73 12.79-12.79 12.79v12.79c14.13 0 25.59-11.46 25.59-25.59S65.3 25.57 51.17 25.57c-4.66 0-9.03 1.24-12.79 3.43-7.65 4.42-12.79 12.69-12.79 22.16v63.97l11.5 11.5 1.29 1.29V51.17c0-7.06 5.73-12.79 12.79-12.79s12.79 5.73 12.79 12.79"/></symbol>
        <symbol viewBox="0 0 24 24" id="material-symbols-article">
            <path fill="currentColor" d="M5 21q-.825 0-1.412-.587T3 19V5q0-.825.588-1.412T5 3h14q.825 0 1.413.588T21 5v14q0 .825-.587 1.413T19 21zm2-4h7v-2H7zm0-4h10v-2H7zm0-4h10V7H7z"></path>
        </symbol>
        <symbol id="checkmark-icon"
            xmlns="http://www.w3.org/2000/svg" fill="currentColor" aria-hidden="true"
            class="w-3.5 h-3.5 mr-2 text-green-500 dark:text-green-400 flex-shrink-0"
            viewBox="0 0 20 20">
            <path
                d="M10 .5a9.5 9.5 0 1 0 9.5 9.5A9.51 9.51 0 0 0 10 .5Zm3.707 8.207-4 4a1 1 0 0 1-1.414 0l-2-2a1 1 0 0 1 1.414-1.414L9 10.586l3.293-3.293a1 1 0 0 1 1.414 1.414Z" />
        </symbol>
        <symbol viewBox="0 0 24 24" id="material-symbols-build">
            <path fill="currentColor" d="m17.15 20.7l-6.05-6.1q-.5.2-1.012.3T9 15q-2.5 0-4.25-1.75T3 9q0-.9.25-1.712t.7-1.538L7.6 9.4l1.8-1.8l-3.65-3.65q.725-.45 1.538-.7T9 3q2.5 0 4.25 1.75T15 9q0 .575-.1 1.088t-.3 1.012l6.1 6.05q.3.3.3.725t-.3.725l-2.1 2.1q-.3.3-.725.3t-.725-.3"></path>
        </symbol>
        <symbol viewBox="0 0 24 24" id="material-symbols-light-kid-star-sharp">
            <path fill="currentColor" d="M8.125 7.092L12 1.937l3.875 5.155l6.139 2.07l-3.941 5.336l.156 6.056L12 18.733l-6.229 1.82l.156-6.08l-3.915-5.312z"></path>
        </symbol>
        <symbol viewBox="0 0 21 21" id="system-uicons-reset">
            <g fill="none" fill-rule="evenodd" stroke="currentColor" stroke-linecap="round"
                stroke-linejoin="round">
                <path d="M3.578 6.487A8 8 0 1 1 2.5 10.5"></path>
                <path d="M7.5 6.5h-4v-4"></path>
            </g>
        </symbol>
        <symbol viewBox="0 0 24 24" id="material-symbols-home">
            <path fill="currentColor" d="M4 21V9l8-6l8 6v12h-6v-7h-4v7z"></path>
        </symbol>
        <symbol viewBox="0 0 24 24" id="material-symbols-playlist-add-check">
            <path fill="currentColor"
                d="M3 16v-2h8v2zm0-4v-2h12v2zm0-4V6h12v2zm13.35 11l-3.55-3.55l1.4-1.4l2.15 2.1l4.25-4.25l1.4 1.45z"></path>
        </symbol>
        <symbol viewBox="0 0 24 24" id="material-symbols-open-in-new-rounded">
            <path fill="currentColor"
                d="M5 21q-.825 0-1.412-.587T3 19V5q0-.825.588-1.412T5 3h6q.425 0 .713.288T12 4q0 .425-.288.713T11 5H5v14h14v-6q0-.425.288-.712T20 12q.425 0 .713.288T21 13v6q0 .825-.587 1.413T19 21zM19 6.4L10.4 15q-.275.275-.7.275T9 15q-.275-.275-.275-.7T9 13.6L17.6 5H15q-.425 0-.712-.288T14 4q0-.425.288-.712T15 3h6v6q0 .425-.288.713T20 10q-.425 0-.712-.288T19 9z"></path>
        </symbol>
        <symbol viewBox="0 0 24 24" id="mingcute-external-link-line">
            <g fill="none">
                <path
                    d="M24 0v24H0V0zM12.593 23.258l-.011.002l-.071.035l-.02.004l-.014-.004l-.071-.035c-.01-.004-.019-.001-.024.005l-.004.01l-.017.428l.005.02l.01.013l.104.074l.015.004l.012-.004l.104-.074l.012-.016l.004-.017l-.017-.427c-.002-.01-.009-.017-.017-.018m.265-.113l-.013.002l-.185.093l-.01.01l-.003.011l.018.43l.005.012l.008.007l.201.093c.012.004.023 0 .029-.008l.004-.014l-.034-.614c-.003-.012-.01-.02-.02-.022m-.715.002a.023.023 0 0 0-.027.006l-.006.014l-.034.614c0 .012.007.02.017.024l.015-.002l.201-.093l.01-.008l.004-.011l.017-.43l-.003-.012l-.01-.01z"></path>
                <path fill="currentColor"
                    d="M11 6a1 1 0 1 1 0 2H5v11h11v-6a1 1 0 1 1 2 0v6a2 2 0 0 1-2 2H5a2 2 0 0 1-2-2V8a2 2 0 0 1 2-2zm9-3a1 1 0 0 1 1 1v5a1 1 0 1 1-2 0V6.414l-8.293 8.293a1 1 0 0 1-1.414-1.414L17.586 5H15a1 1 0 1 1 0-2Z"></path>
            </g>
        </symbol>
        <symbol viewBox="0 0 24 24" id="material-symbols-text-decrease-rounded">
            <path fill="currentColor"
                d="M16 13q-.425 0-.712-.288T15 12q0-.425.288-.712T16 11h6q.425 0 .713.288T23 12q0 .425-.288.713T22 13zM4.675 15.425l-1.025 2.85q-.125.35-.4.538T2.625 19q-.575 0-.913-.487t-.137-1.038l4.4-11.725Q6.1 5.4 6.4 5.2t.65-.2h.9q.375 0 .663.2t.412.55L13.45 17.5q.2.55-.137 1.025T12.4 19q-.35 0-.65-.2t-.425-.55l-1-2.825zM5.4 13.4h4.2L7.55 7.6h-.1z"></path>
        </symbol>
        <symbol viewBox="0 0 24 24" id="material-symbols-text-increase-rounded">
            <path fill="currentColor"
                d="m4.675 15.425l-1.025 2.85q-.125.35-.4.538T2.625 19q-.575 0-.913-.487t-.137-1.038l4.4-11.725Q6.1 5.4 6.4 5.2t.65-.2h.9q.375 0 .663.2t.412.55L13.45 17.5q.2.55-.137 1.025T12.4 19q-.35 0-.65-.2t-.425-.55l-1-2.825zM5.4 13.4h4.2L7.55 7.6h-.1zM18 13h-2q-.425 0-.712-.288T15 12q0-.425.288-.712T16 11h2V9q0-.425.288-.712T19 8q.425 0 .713.288T20 9v2h2q.425 0 .713.288T23 12q0 .425-.288.713T22 13h-2v2q0 .425-.288.713T19 16q-.425 0-.712-.288T18 15z"></path>
        </symbol>
        <symbol viewBox="0 0 24 24" id="mdi-linkedin">
            <path fill="currentColor"
                d="M19 3a2 2 0 0 1 2 2v14a2 2 0 0 1-2 2H5a2 2 0 0 1-2-2V5a2 2 0 0 1 2-2zm-.5 15.5v-5.3a3.26 3.26 0 0 0-3.26-3.26c-.85 0-1.84.52-2.32 1.3v-1.11h-2.79v8.37h2.79v-4.93c0-.77.62-1.4 1.39-1.4a1.4 1.4 0 0 1 1.4 1.4v4.93zM6.88 8.56a1.68 1.68 0 0 0 1.68-1.68c0-.93-.75-1.69-1.68-1.69a1.69 1.69 0 0 0-1.69 1.69c0 .93.76 1.68 1.69 1.68m1.39 9.94v-8.37H5.5v8.37z"></path>
        </symbol>
        <symbol viewBox="0 0 24 24" id="mdi-email">
            <path fill="currentColor"
                d="m20 8l-8 5l-8-5V6l8 5l8-5m0-2H4c-1.11 0-2 .89-2 2v12a2 2 0 0 0 2 2h16a2 2 0 0 0 2-2V6a2 2 0 0 0-2-2"></path>
        </symbol>
        <symbol viewBox="0 0 24 24" id="mdi-twitter">
            <path fill="currentColor"
                d="M22.46 6c-.77.35-1.6.58-2.46.69c.88-.53 1.56-1.37 1.88-2.38c-.83.5-1.75.85-2.72 1.05C18.37 4.5 17.26 4 16 4c-2.35 0-4.27 1.92-4.27 4.29c0 .34.04.67.11.98C8.28 9.09 5.11 7.38 3 4.79c-.37.63-.58 1.37-.58 2.15c0 1.49.75 2.81 1.91 3.56c-.71 0-1.37-.2-1.95-.5v.03c0 2.08 1.48 3.82 3.44 4.21a4.22 4.22 0 0 1-1.93.07a4.28 4.28 0 0 0 4 2.98a8.521 8.521 0 0 1-5.33 1.84c-.34 0-.68-.02-1.02-.06C3.44 20.29 5.7 21 8.12 21C16 21 20.33 14.46 20.33 8.79c0-.19 0-.37-.01-.56c.84-.6 1.56-1.36 2.14-2.23"></path>
        </symbol>
        <symbol viewBox="0 0 24 24" id="mdi-github">
            <path fill="currentColor"
                d="M12 2A10 10 0 0 0 2 12c0 4.42 2.87 8.17 6.84 9.5c.5.08.66-.23.66-.5v-1.69c-2.77.6-3.36-1.34-3.36-1.34c-.46-1.16-1.11-1.47-1.11-1.47c-.91-.62.07-.6.07-.6c1 .07 1.53 1.03 1.53 1.03c.87 1.52 2.34 1.07 2.91.83c.09-.65.35-1.09.63-1.34c-2.22-.25-4.55-1.11-4.55-4.92c0-1.11.38-2 1.03-2.71c-.1-.25-.45-1.29.1-2.64c0 0 .84-.27 2.75 1.02c.79-.22 1.65-.33 2.5-.33c.85 0 1.71.11 2.5.33c1.91-1.29 2.75-1.02 2.75-1.02c.55 1.35.2 2.39.1 2.64c.65.71 1.03 1.6 1.03 2.71c0 3.82-2.34 4.66-4.57 4.91c.36.31.69.92.69 1.85V21c0 .27.16.59.67.5C19.14 20.16 22 16.42 22 12A10 10 0 0 0 12 2"></path>
        </symbol>
        <symbol viewBox="0 0 24 24" id="material-symbols-dark-mode-outline-rounded">
            <path fill="currentColor"
                d="M12 21q-3.775 0-6.387-2.613T3 12q0-3.45 2.25-5.988T11 3.05q.325-.05.575.088t.4.362q.15.225.163.525t-.188.575q-.425.65-.638 1.375T11.1 7.5q0 2.25 1.575 3.825T16.5 12.9q.775 0 1.538-.225t1.362-.625q.275-.175.563-.162t.512.137q.25.125.388.375t.087.6q-.35 3.45-2.937 5.725T12 21m0-2q2.2 0 3.95-1.213t2.55-3.162q-.5.125-1 .2t-1 .075q-3.075 0-5.238-2.163T9.1 7.5q0-.5.075-1t.2-1q-1.95.8-3.163 2.55T5 12q0 2.9 2.05 4.95T12 19m-.25-6.75"></path>
        </symbol>
        <symbol viewBox="0 0 24 24" id="material-symbols-light-mode-outline-rounded">
            <path fill="currentColor"
                d="M12 15q1.25 0 2.125-.875T15 12q0-1.25-.875-2.125T12 9q-1.25 0-2.125.875T9 12q0 1.25.875 2.125T12 15m0 2q-2.075 0-3.537-1.463T7 12q0-2.075 1.463-3.537T12 7q2.075 0 3.538 1.463T17 12q0 2.075-1.463 3.538T12 17M2 13q-.425 0-.712-.288T1 12q0-.425.288-.712T2 11h2q.425 0 .713.288T5 12q0 .425-.288.713T4 13zm18 0q-.425 0-.712-.288T19 12q0-.425.288-.712T20 11h2q.425 0 .713.288T23 12q0 .425-.288.713T22 13zm-8-8q-.425 0-.712-.288T11 4V2q0-.425.288-.712T12 1q.425 0 .713.288T13 2v2q0 .425-.288.713T12 5m0 18q-.425 0-.712-.288T11 22v-2q0-.425.288-.712T12 19q.425 0 .713.288T13 20v2q0 .425-.288.713T12 23M5.65 7.05L4.575 6q-.3-.275-.288-.7t.288-.725q.3-.3.725-.3t.7.3L7.05 5.65q.275.3.275.7t-.275.7q-.275.3-.687.288T5.65 7.05M18 19.425l-1.05-1.075q-.275-.3-.275-.712t.275-.688q.275-.3.688-.287t.712.287L19.425 18q.3.275.288.7t-.288.725q-.3.3-.725.3t-.7-.3M16.95 7.05q-.3-.275-.288-.687t.288-.713L18 4.575q.275-.3.7-.288t.725.288q.3.3.3.725t-.3.7L18.35 7.05q-.3.275-.7.275t-.7-.275M4.575 19.425q-.3-.3-.3-.725t.3-.7l1.075-1.05q.3-.275.712-.275t.688.275q.3.275.288.688t-.288.712L6 19.425q-.275.3-.7.288t-.725-.288M12 12"></path>
        </symbol>
        <symbol viewBox="0 0 24 24" id="material-symbols-work-outline">
            <path fill="currentColor" d="M6 22q-.825 0-1.412-.587T4 20V8q0-.825.588-1.412T6 6h2V4q0-.825.588-1.412T10 2h4q.825 0 1.413.588T16 4v2h2q.825 0 1.413.588T20 8v12q0 .825-.587 1.413T18 22zm4-16h4V4h-4zm8 14V8H6v12zm-7-2h2v-6h-2zm0 0h2v-6h-2z"/>
        </symbol>
        <symbol viewBox="0 0 24 24" id="material-symbols-school-outline">
            <path fill="currentColor" d="M5 13.18v4L12 21l7-3.82v-4L12 17zM12 3L1 9l11 6l9-4.91V17h2V9z"/>
        </symbol>
        <symbol viewBox="0 0 24 24" id="material-symbols-lightbulb-outline">
            <path fill="currentColor" d="M12 22q-.825 0-1.412-.587T10 20h4q0 .825-.587 1.413T12 22m-2-3q-.425 0-.712-.288T9 18q0-.425.288-.712T10 17h4q.425 0 .713.288T15 18q0 .425-.288.713T14 19zm1-3q-1.65 0-2.825-1.175T7 12q0-1.65 1.175-2.825T11 8q1.65 0 2.825 1.175T15 12q0 1.65-1.175 2.825T11 16m1-8q-1.25 0-2.125.875T9 12q0 1.25.875 2.125T12 15q1.25 0 2.125-.875T15 12q0-1.25-.875-2.125T12 8"/>
        </symbol>
        <symbol viewBox="0 0 24 24" id="material-symbols-trending-up">
            <path fill="currentColor" d="m16 6l2.29 2.29l-4.88 4.88l-4-4L2 16.59L3.41 18l6-6l4 4l6.3-6.29L22 12V6z"/>
        </symbol>
        <symbol viewBox="0 0 24 24" id="material-symbols-code">
            <path fill="currentColor" d="M8 18l-6-6l6-6l1.425 1.425l-4.6 4.6L9.4 16.6zm8 0l-1.425-1.425l4.6-4.6L14.6 7.4L16 6l6 6z"/>
        </symbol>
        <symbol viewBox="0 0 24 24" id="material-symbols-web">
            <path fill="currentColor" d="M3 19q-.825 0-1.412-.587T1 17V7q0-.825.588-1.412T3 5h18q.825 0 1.413.588T23 7v10q0 .825-.587 1.413T21 19zm0-2h18V9H3zm0-8h18V7H3z"/>
        </symbol>
        <symbol viewBox="0 0 24 24" id="material-symbols-smartphone">
            <path fill="currentColor" d="M7 23q-.825 0-1.412-.587T5 21V3q0-.825.588-1.412T7 1h10q.825 0 1.413.588T19 3v18q0 .825-.587 1.413T17 23zm0-5h10V6H7zm5 3q.425 0 .713-.288T13 20q0-.425-.288-.712T12 19q-.425 0-.712.288T11 20q0 .425.288.713T12 21"/>
        </symbol>
        <symbol viewBox="0 0 24 24" id="material-symbols-extension">
            <path fill="currentColor" d="M12 22q-.425 0-.712-.288T11 21v-1.5q-.625 0-1.062-.437T9.5 18q0-.625.438-1.062T11 16.5V15H9.5q-.625 0-1.062-.437T8 13.5q0-.625.438-1.062T9.5 12H11V9.5q-.625 0-1.062-.437T9.5 8q0-.625.438-1.062T11 6.5V5q0-.425.288-.712T12 4q.425 0 .713.288T13 5v1.5q.625 0 1.063.438T14.5 8q0 .625-.437 1.063T13 9.5V12h1.5q.625 0 1.063.438T16 13.5q0 .625-.437 1.063T14.5 15H13v1.5q.625 0 1.063.438T14.5 18q0 .625-.437 1.063T13 19.5V21q0 .425-.287.713T12 22"/>
        </symbol>
        <symbol viewBox="0 0 24 24" id="material-symbols-psychology">
            <path fill="currentColor" d="M12 22q-.825 0-1.412-.587T10 20v-1.65q-1.775-.2-3.137-1.225T4.9 14.45q-.125-.35.05-.7t.5-.45q.35-.1.725.05t.525.5q.35.825 1.188 1.338T9.5 15.5q1.05 0 1.775-.725T12 13q0-1.05-.725-1.775T9.5 10.5q-1.875 0-3.187-1.312T5 6q0-1.875 1.313-3.187T9.5 1.5q1.05 0 1.975.4t1.675 1.1q.125.125.188.275t.062.325q0 .35-.25.6t-.6.25q-.175 0-.325-.062t-.275-.188q-.5-.5-1.162-.75T9.5 3q-1.05 0-1.775.725T7 5.5q0 1.05.725 1.775T9.5 8.5q1.875 0 3.188 1.313T14 13q0 1.5-.812 2.75T11 17.65V20q0 .825-.587 1.413T9 22zm3-12q-.425 0-.712-.288T14 9V7q0-.425.288-.712T15 6h4q.425 0 .713.288T20 7v2q0 .425-.288.713T19 10z"/>
        </symbol>
        <symbol viewBox="0 0 24 24" id="material-symbols-security">
            <path fill="currentColor" d="M12 22q-3.475-.875-5.737-3.988T4 11.1V5l8-3l8 3v6.1q0 3.8-2.262 6.913T12 22"/>
        </symbol>
        <symbol viewBox="0 0 24 24" id="material-symbols-rocket-launch">
            <path fill="currentColor" d="m9.775 12l.35-3.95L7.4 10.75l2.375 1.25zm4.85 2.8l1.25 2.375l2.7-2.725L14.625 12l-3.95.35zM6 20v-3l2.2-.9l-.7-1.15L5 16l1-1l1.05 2.5L8.2 17l.8.15V20zm7.5-7.5q.65 0 1.075-.425T15.4 11q0-.65-.425-1.075T13.9 9.5q-.65 0-1.075.425T12.4 11q0 .65.425 1.075t1.075.425zM12 2l7 3v6.1q0 3.8-2.262 6.913T12 22q-3.475-.875-5.737-3.988T4 11.1V5z"/>
        </symbol>
        <symbol viewBox="0 0 24 24" id="material-symbols-play-circle">
            <path fill="currentColor" d="M12 22q-2.075 0-3.9-.788t-3.175-2.137q-1.35-1.35-2.137-3.175T2 12q0-2.075.788-3.9t2.137-3.175q1.35-1.35 3.175-2.137T12 2q2.075 0 3.9.788t3.175 2.137q1.35 1.35 2.138 3.175T22 12q0 2.075-.788 3.9t-2.137 3.175q-1.35 1.35-3.175 2.138T12 22m-2-6l6-4l-6-4z"/>
        </symbol>
        <symbol viewBox="0 0 24 24" id="proicons-x-twitter"><!-- Icon from ProIcons by ProCode - https://github.com/ProCode-Software/proicons/blob/main/LICENSE --><path fill="none" stroke="currentColor" stroke-linecap="round" stroke-linejoin="round" stroke-width="1.5" d="m13.081 10.712l-4.786-6.71a.6.6 0 0 0-.489-.252H5.28a.6.6 0 0 0-.488.948l6.127 8.59m2.162-2.576l6.127 8.59a.6.6 0 0 1-.488.948h-2.526a.6.6 0 0 1-.489-.252l-4.786-6.71m2.162-2.576l5.842-6.962m-8.004 9.538L5.077 20.25"></path></symbol>
        <symbol viewBox="0 0 24 24" id="material-symbols-menu-book-rounded"><!-- Icon from Material Symbols by Google - https://github.com/google/material-design-icons/blob/master/LICENSE --><path fill="currentColor" d="M13 17.05q1.1-.525 2.213-.788T17.5 16q.9 0 1.763.15T21 16.6V6.7q-.825-.35-1.713-.525T17.5 6q-1.175 0-2.325.3T13 7.2zm-1 2.425q-.35 0-.663-.088t-.587-.237q-.975-.575-2.05-.862T6.5 18q-1.05 0-2.062.275T2.5 19.05q-.525.275-1.012-.025T1 18.15V6.1q0-.275.138-.525T1.55 5.2q1.175-.575 2.413-.888T6.5 4q1.45 0 2.838.375T12 5.5q1.275-.75 2.663-1.125T17.5 4q1.3 0 2.538.313t2.412.887q.275.125.413.375T23 6.1v12.05q0 .575-.487.875t-1.013.025q-.925-.5-1.937-.775T17.5 18q-1.125 0-2.2.288t-2.05.862q-.275.15-.587.238t-.663.087m2-10.7q0-.225.163-.462T14.525 8q.725-.25 1.45-.375T17.5 7.5q.5 0 .988.063t.962.162q.225.05.388.25t.162.45q0 .425-.275.625t-.7.1q-.35-.075-.737-.112T17.5 9q-.65 0-1.275.125t-1.2.325q-.45.175-.737-.025T14 8.775m0 5.5q0-.225.163-.462t.362-.313q.725-.25 1.45-.375T17.5 13q.5 0 .988.063t.962.162q.225.05.388.25t.162.45q0 .425-.275.625t-.7.1q-.35-.075-.737-.112T17.5 14.5q-.65 0-1.275.113t-1.2.312q-.45.175-.737-.012T14 14.275m0-2.75q0-.225.163-.462t.362-.313q.725-.25 1.45-.375t1.525-.125q.5 0 .988.063t.962.162q.225.05.388.25t.162.45q0 .425-.275.625t-.7.1q-.35-.075-.737-.112t-.788-.038q-.65 0-1.275.125t-1.2.325q-.45.175-.737-.025t-.288-.65"></path></symbol>
    </defs>
</svg>